<svg id="logo-white" xmlns="http://www.w3.org/2000/svg" viewBox="0 0 163.61 42.816">
  <defs>
    <style>
      .cls-1 {
        fill: #009bd2;
        fill-rule: evenodd;
      }
    </style>
  </defs>
  <g id="Home-3-Copy-9" transform="translate(-171 -4829)">
    <g id="Group-25" transform="translate(1 4773)">
      <g id="Group-22" transform="translate(140 56)">
        <g id="Group_1" data-name="Group 1" transform="translate(30)">
          <g id="Logo-Jenius">
            <path id="Fill-1" class="cls-1" d="M59.9,32.744c0,3.222-1.994,5.031-6.235,5.167v4.905c4.82,0,10.921-2.679,10.921-10.072V8.7H59.9v24.04Z"/>
            <path id="Combined-Shape" class="cls-1" d="M87.61,19.057c0,3.086-1.369,4.274-4.3,4.274H73.433c.406,2.623,2.078,5.172,5.722,5.172a10.921,10.921,0,0,0,5.89-2l2.391,3.815a13.664,13.664,0,0,1-8.281,2.909c-8.2,0-10.677-6.135-10.677-12.49S70.91,8.251,78.044,8.251C85.577,8.251,87.61,15.246,87.61,19.057Zm-14.217-.444h9.294c-.3-3.007-1.549-5.635-4.643-5.635S73.7,15.606,73.392,18.613Z"/>
            <path id="Fill-7" class="cls-1" d="M100.378,8.255c-5.849,0-8.865,4.947-8.865,4.947V32.95h4.7V14.793a5.573,5.573,0,0,1,4.163-1.815,4.627,4.627,0,0,1,4.606,4.719V32.95h4.7V17.7c0-4.587-3.141-9.441-9.3-9.441"/>
            <path id="Fill-9" class="cls-1" d="M114.894,32.95h4.7V8.531h-4.7Z"/>
            <path id="Fill-11" class="cls-1" d="M155.105,18.15h.043c-1.6-.454-3.68-1.267-3.68-2.946,0-1.221,1.248-2.226,3.593-2.226a15.763,15.763,0,0,1,6.03,1.581l1.508-4.311a18.237,18.237,0,0,0-7.537-1.992c-4.072,0-8.331,2.132-8.331,6.949,0,4.447,3.812,6.668,7.583,7.631,2.028.449,4.6,1.319,4.6,3.03,0,1.824-2.09,2.632-4.116,2.632-2,0-4.731-1.314-6.817-2.45l-1.832,4.5a19.474,19.474,0,0,0,8.648,2.679c4.284,0,8.811-2.095,8.811-7.36,0-5.073-4.957-6.809-8.5-7.716"/>
            <path id="Fill-12" class="cls-1" d="M138.4,23.785a4.583,4.583,0,1,1-9.162,0V8.531h-4.7V23.785c0,4.569,3.13,9.418,9.244,9.441h.055c6.123-.024,9.244-4.873,9.244-9.441V8.531H138.4Z"/>
            <path id="Combined-Shape-2" data-name="Combined-Shape" class="cls-1" d="M45.619,20.331c0,10.915-8.6,19.271-18.377,19.271a21.589,21.589,0,0,1-3.471-.28,18.58,18.58,0,0,1-4.835.8C8.585,40.121,0,33.765,0,23.129A18.044,18.044,0,0,1,10.535,7.181C14.39,2.1,20.916,0,25.5,0,37.129,0,45.619,9.068,45.619,20.331ZM26.97,2A16.782,16.782,0,0,0,16.694,5.649c.213-.006.578-.017.789-.017a13.844,13.844,0,0,1,7.374,1.961s11.156,4.32,11.156,16.375A15.732,15.732,0,0,1,28.52,37.259c7.391-1.482,13.766-8.852,13.766-18.365C42.286,10.727,35.7,2,26.97,2ZM18.5,8.151c-4.668,0-8.271,4.252-8.271,9.365,0,6.207,3.981,10.573,8.447,10.573,4.978,0,8.549-4.121,8.549-10.277C27.229,13.252,23.418,8.151,18.5,8.151Zm-.659,30.054a12.507,12.507,0,0,0,1.661-.108c-7.553-3.118-12.38-10.818-12.38-20.109,0-.689.044-1.345.108-2a14.1,14.1,0,0,1,1.1-4.5c-3.155,2.833-4.4,7.022-4.4,11.223C3.939,31.308,11.075,38.205,17.845,38.205Zm5.065-.974c5.735-2.229,10.133-8,10.133-14.193a15.235,15.235,0,0,0-3.928-10.6,13.335,13.335,0,0,1,1.14,5.62,11.459,11.459,0,0,1-19.66,8.117C12.6,31.537,17.245,36.062,22.91,37.231Z"/>
          </g>
        </g>
      </g>
    </g>
  </g>
</svg>
